<mxfile host="app.diagrams.net" modified="2022-05-17T13:26:05.569Z" agent="5.0 (Windows)" etag="1pN3MVbtdd4CDTYloRnw" version="18.0.6" type="github">
  <diagram id="9PzOSqbZBdwPj_BiaO6k" name="Page-1">
    <mxGraphModel dx="1960" dy="650" grid="1" gridSize="10" guides="1" tooltips="1" connect="1" arrows="1" fold="1" page="1" pageScale="1" pageWidth="850" pageHeight="1100" math="0" shadow="0">
      <root>
        <mxCell id="0" />
        <mxCell id="1" parent="0" />
        <mxCell id="paCfTpF6OUX7KXFUmlUW-167" value="" style="edgeStyle=orthogonalEdgeStyle;rounded=0;orthogonalLoop=1;jettySize=auto;html=1;exitX=0.5;exitY=1;exitDx=0;exitDy=0;" edge="1" parent="1" source="paCfTpF6OUX7KXFUmlUW-164" target="paCfTpF6OUX7KXFUmlUW-166">
          <mxGeometry relative="1" as="geometry" />
        </mxCell>
        <mxCell id="paCfTpF6OUX7KXFUmlUW-171" value="" style="edgeStyle=orthogonalEdgeStyle;rounded=0;orthogonalLoop=1;jettySize=auto;html=1;" edge="1" parent="1" source="paCfTpF6OUX7KXFUmlUW-164" target="paCfTpF6OUX7KXFUmlUW-170">
          <mxGeometry relative="1" as="geometry" />
        </mxCell>
        <mxCell id="paCfTpF6OUX7KXFUmlUW-164" value="Users" style="whiteSpace=wrap;html=1;align=center;fillColor=default;gradientColor=none;" vertex="1" parent="1">
          <mxGeometry x="270" y="150" width="140" height="60" as="geometry" />
        </mxCell>
        <mxCell id="paCfTpF6OUX7KXFUmlUW-169" value="" style="edgeStyle=orthogonalEdgeStyle;rounded=0;orthogonalLoop=1;jettySize=auto;html=1;" edge="1" parent="1" source="paCfTpF6OUX7KXFUmlUW-166" target="paCfTpF6OUX7KXFUmlUW-168">
          <mxGeometry relative="1" as="geometry" />
        </mxCell>
        <mxCell id="paCfTpF6OUX7KXFUmlUW-166" value="Create" style="rhombus;whiteSpace=wrap;html=1;gradientColor=none;" vertex="1" parent="1">
          <mxGeometry x="245" y="280" width="150" height="110" as="geometry" />
        </mxCell>
        <mxCell id="paCfTpF6OUX7KXFUmlUW-173" value="" style="edgeStyle=orthogonalEdgeStyle;rounded=0;orthogonalLoop=1;jettySize=auto;html=1;" edge="1" parent="1" source="paCfTpF6OUX7KXFUmlUW-168" target="paCfTpF6OUX7KXFUmlUW-172">
          <mxGeometry relative="1" as="geometry" />
        </mxCell>
        <mxCell id="paCfTpF6OUX7KXFUmlUW-168" value="Advertisment" style="whiteSpace=wrap;html=1;gradientColor=none;" vertex="1" parent="1">
          <mxGeometry x="260" y="460" width="120" height="60" as="geometry" />
        </mxCell>
        <mxCell id="paCfTpF6OUX7KXFUmlUW-170" value="Login" style="whiteSpace=wrap;html=1;align=center;fillColor=default;gradientColor=none;" vertex="1" parent="1">
          <mxGeometry x="550" y="155" width="130" height="50" as="geometry" />
        </mxCell>
        <mxCell id="paCfTpF6OUX7KXFUmlUW-172" value="POST ad" style="whiteSpace=wrap;html=1;gradientColor=none;" vertex="1" parent="1">
          <mxGeometry x="260" y="640" width="120" height="60" as="geometry" />
        </mxCell>
        <mxCell id="paCfTpF6OUX7KXFUmlUW-174" value="Name" style="ellipse;whiteSpace=wrap;html=1;gradientColor=none;" vertex="1" parent="1">
          <mxGeometry x="-60" y="80" width="105" height="40" as="geometry" />
        </mxCell>
        <mxCell id="paCfTpF6OUX7KXFUmlUW-178" value="" style="endArrow=none;html=1;rounded=0;entryX=0;entryY=0.5;entryDx=0;entryDy=0;exitX=1;exitY=1;exitDx=0;exitDy=0;" edge="1" parent="1" source="paCfTpF6OUX7KXFUmlUW-174" target="paCfTpF6OUX7KXFUmlUW-164">
          <mxGeometry relative="1" as="geometry">
            <mxPoint x="30" y="150" as="sourcePoint" />
            <mxPoint x="190" y="150" as="targetPoint" />
          </mxGeometry>
        </mxCell>
        <mxCell id="paCfTpF6OUX7KXFUmlUW-179" value="Email" style="ellipse;whiteSpace=wrap;html=1;gradientColor=none;" vertex="1" parent="1">
          <mxGeometry x="-95" y="180" width="90" height="40" as="geometry" />
        </mxCell>
        <mxCell id="paCfTpF6OUX7KXFUmlUW-180" value="Password" style="ellipse;whiteSpace=wrap;html=1;gradientColor=none;" vertex="1" parent="1">
          <mxGeometry x="20" y="40" width="100" height="40" as="geometry" />
        </mxCell>
        <mxCell id="paCfTpF6OUX7KXFUmlUW-181" value="Username" style="ellipse;whiteSpace=wrap;html=1;gradientColor=none;" vertex="1" parent="1">
          <mxGeometry x="-80" y="130" width="90" height="40" as="geometry" />
        </mxCell>
        <mxCell id="paCfTpF6OUX7KXFUmlUW-182" value="" style="endArrow=none;html=1;rounded=0;entryX=0;entryY=0.5;entryDx=0;entryDy=0;exitX=0.44;exitY=1.025;exitDx=0;exitDy=0;exitPerimeter=0;" edge="1" parent="1" source="paCfTpF6OUX7KXFUmlUW-180" target="paCfTpF6OUX7KXFUmlUW-164">
          <mxGeometry relative="1" as="geometry">
            <mxPoint x="40" y="70" as="sourcePoint" />
            <mxPoint x="150" y="110" as="targetPoint" />
          </mxGeometry>
        </mxCell>
        <mxCell id="paCfTpF6OUX7KXFUmlUW-183" value="" style="endArrow=none;html=1;rounded=0;entryX=0;entryY=0.5;entryDx=0;entryDy=0;exitX=1;exitY=0.5;exitDx=0;exitDy=0;" edge="1" parent="1" source="paCfTpF6OUX7KXFUmlUW-181" target="paCfTpF6OUX7KXFUmlUW-164">
          <mxGeometry relative="1" as="geometry">
            <mxPoint x="-10" y="170" as="sourcePoint" />
            <mxPoint x="95" y="210" as="targetPoint" />
          </mxGeometry>
        </mxCell>
        <mxCell id="paCfTpF6OUX7KXFUmlUW-184" value="" style="endArrow=none;html=1;rounded=0;entryX=0;entryY=0.5;entryDx=0;entryDy=0;exitX=1;exitY=0.5;exitDx=0;exitDy=0;" edge="1" parent="1" source="paCfTpF6OUX7KXFUmlUW-179" target="paCfTpF6OUX7KXFUmlUW-164">
          <mxGeometry relative="1" as="geometry">
            <mxPoint x="40" y="140" as="sourcePoint" />
            <mxPoint x="150" y="180" as="targetPoint" />
          </mxGeometry>
        </mxCell>
        <mxCell id="paCfTpF6OUX7KXFUmlUW-185" value="Phone" style="ellipse;whiteSpace=wrap;html=1;gradientColor=none;" vertex="1" parent="1">
          <mxGeometry x="-85" y="230" width="100" height="40" as="geometry" />
        </mxCell>
        <mxCell id="paCfTpF6OUX7KXFUmlUW-186" value="AreaName" style="ellipse;whiteSpace=wrap;html=1;gradientColor=none;" vertex="1" parent="1">
          <mxGeometry x="15" y="260" width="100" height="40" as="geometry" />
        </mxCell>
        <mxCell id="paCfTpF6OUX7KXFUmlUW-187" value="CityName" style="ellipse;whiteSpace=wrap;html=1;gradientColor=none;" vertex="1" parent="1">
          <mxGeometry x="130" y="60" width="80" height="40" as="geometry" />
        </mxCell>
        <mxCell id="paCfTpF6OUX7KXFUmlUW-188" value="" style="endArrow=none;html=1;rounded=0;entryX=0.5;entryY=1;entryDx=0;entryDy=0;exitX=0;exitY=0.5;exitDx=0;exitDy=0;" edge="1" parent="1" source="paCfTpF6OUX7KXFUmlUW-164" target="paCfTpF6OUX7KXFUmlUW-187">
          <mxGeometry relative="1" as="geometry">
            <mxPoint x="120" y="150" as="sourcePoint" />
            <mxPoint x="130" y="160" as="targetPoint" />
          </mxGeometry>
        </mxCell>
        <mxCell id="paCfTpF6OUX7KXFUmlUW-189" value="" style="endArrow=none;html=1;rounded=0;entryX=0.5;entryY=0;entryDx=0;entryDy=0;exitX=0;exitY=0.5;exitDx=0;exitDy=0;" edge="1" parent="1" source="paCfTpF6OUX7KXFUmlUW-164" target="paCfTpF6OUX7KXFUmlUW-186">
          <mxGeometry relative="1" as="geometry">
            <mxPoint x="115" y="150" as="sourcePoint" />
            <mxPoint x="245" y="70" as="targetPoint" />
          </mxGeometry>
        </mxCell>
        <mxCell id="paCfTpF6OUX7KXFUmlUW-190" value="" style="endArrow=none;html=1;rounded=0;entryX=0;entryY=0.5;entryDx=0;entryDy=0;exitX=1;exitY=0;exitDx=0;exitDy=0;" edge="1" parent="1" source="paCfTpF6OUX7KXFUmlUW-185" target="paCfTpF6OUX7KXFUmlUW-164">
          <mxGeometry relative="1" as="geometry">
            <mxPoint x="20" y="260" as="sourcePoint" />
            <mxPoint x="150" y="180" as="targetPoint" />
          </mxGeometry>
        </mxCell>
        <mxCell id="paCfTpF6OUX7KXFUmlUW-194" value="Password" style="ellipse;whiteSpace=wrap;html=1;gradientColor=none;" vertex="1" parent="1">
          <mxGeometry x="650" y="70" width="80" height="40" as="geometry" />
        </mxCell>
        <mxCell id="paCfTpF6OUX7KXFUmlUW-195" value="Email" style="ellipse;whiteSpace=wrap;html=1;gradientColor=none;" vertex="1" parent="1">
          <mxGeometry x="540" y="70" width="80" height="40" as="geometry" />
        </mxCell>
        <mxCell id="paCfTpF6OUX7KXFUmlUW-196" value="" style="endArrow=none;html=1;rounded=0;entryX=0.4;entryY=0.975;entryDx=0;entryDy=0;exitX=0.5;exitY=0;exitDx=0;exitDy=0;entryPerimeter=0;" edge="1" parent="1" source="paCfTpF6OUX7KXFUmlUW-170" target="paCfTpF6OUX7KXFUmlUW-195">
          <mxGeometry relative="1" as="geometry">
            <mxPoint x="630" y="160" as="sourcePoint" />
            <mxPoint x="580" y="90" as="targetPoint" />
          </mxGeometry>
        </mxCell>
        <mxCell id="paCfTpF6OUX7KXFUmlUW-197" value="" style="endArrow=none;html=1;rounded=0;entryX=0.5;entryY=1;entryDx=0;entryDy=0;exitX=0.5;exitY=0;exitDx=0;exitDy=0;" edge="1" parent="1" source="paCfTpF6OUX7KXFUmlUW-170" target="paCfTpF6OUX7KXFUmlUW-194">
          <mxGeometry relative="1" as="geometry">
            <mxPoint x="540" y="140" as="sourcePoint" />
            <mxPoint x="552" y="89" as="targetPoint" />
          </mxGeometry>
        </mxCell>
        <mxCell id="paCfTpF6OUX7KXFUmlUW-199" value="Name" style="ellipse;whiteSpace=wrap;html=1;gradientColor=none;" vertex="1" parent="1">
          <mxGeometry x="-5" y="450" width="80" height="40" as="geometry" />
        </mxCell>
        <mxCell id="paCfTpF6OUX7KXFUmlUW-200" value="" style="endArrow=none;html=1;rounded=0;exitX=0;exitY=0.5;exitDx=0;exitDy=0;entryX=1;entryY=0.5;entryDx=0;entryDy=0;" edge="1" parent="1" source="paCfTpF6OUX7KXFUmlUW-168" target="paCfTpF6OUX7KXFUmlUW-199">
          <mxGeometry relative="1" as="geometry">
            <mxPoint x="248" y="501" as="sourcePoint" />
            <mxPoint x="200" y="450" as="targetPoint" />
          </mxGeometry>
        </mxCell>
        <mxCell id="paCfTpF6OUX7KXFUmlUW-201" value="Image" style="ellipse;whiteSpace=wrap;html=1;gradientColor=none;" vertex="1" parent="1">
          <mxGeometry x="20" y="520" width="80" height="40" as="geometry" />
        </mxCell>
        <mxCell id="paCfTpF6OUX7KXFUmlUW-202" value="Title" style="ellipse;whiteSpace=wrap;html=1;gradientColor=none;" vertex="1" parent="1">
          <mxGeometry x="80" y="580" width="80" height="40" as="geometry" />
        </mxCell>
        <mxCell id="paCfTpF6OUX7KXFUmlUW-203" value="Category" style="ellipse;whiteSpace=wrap;html=1;gradientColor=none;" vertex="1" parent="1">
          <mxGeometry x="30" y="390" width="80" height="40" as="geometry" />
        </mxCell>
        <mxCell id="paCfTpF6OUX7KXFUmlUW-204" value="Details" style="ellipse;whiteSpace=wrap;html=1;gradientColor=none;" vertex="1" parent="1">
          <mxGeometry x="115" y="350" width="80" height="40" as="geometry" />
        </mxCell>
        <mxCell id="paCfTpF6OUX7KXFUmlUW-205" value="Price" style="ellipse;whiteSpace=wrap;html=1;gradientColor=none;" vertex="1" parent="1">
          <mxGeometry x="480" y="570" width="80" height="40" as="geometry" />
        </mxCell>
        <mxCell id="paCfTpF6OUX7KXFUmlUW-206" value="CityName" style="ellipse;whiteSpace=wrap;html=1;gradientColor=none;" vertex="1" parent="1">
          <mxGeometry x="510" y="510" width="80" height="40" as="geometry" />
        </mxCell>
        <mxCell id="paCfTpF6OUX7KXFUmlUW-207" value="Area Name" style="ellipse;whiteSpace=wrap;html=1;gradientColor=none;" vertex="1" parent="1">
          <mxGeometry x="520" y="440" width="80" height="40" as="geometry" />
        </mxCell>
        <mxCell id="paCfTpF6OUX7KXFUmlUW-208" value="Contact no" style="ellipse;whiteSpace=wrap;html=1;gradientColor=none;" vertex="1" parent="1">
          <mxGeometry x="510" y="370" width="80" height="40" as="geometry" />
        </mxCell>
        <mxCell id="paCfTpF6OUX7KXFUmlUW-210" value="" style="endArrow=none;html=1;rounded=0;exitX=0;exitY=0.5;exitDx=0;exitDy=0;entryX=1;entryY=0.5;entryDx=0;entryDy=0;" edge="1" parent="1" source="paCfTpF6OUX7KXFUmlUW-207" target="paCfTpF6OUX7KXFUmlUW-168">
          <mxGeometry relative="1" as="geometry">
            <mxPoint x="755" y="450" as="sourcePoint" />
            <mxPoint x="585" y="450" as="targetPoint" />
          </mxGeometry>
        </mxCell>
        <mxCell id="paCfTpF6OUX7KXFUmlUW-211" value="" style="endArrow=none;html=1;rounded=0;exitX=0;exitY=0;exitDx=0;exitDy=0;entryX=1;entryY=0.5;entryDx=0;entryDy=0;" edge="1" parent="1" source="paCfTpF6OUX7KXFUmlUW-205" target="paCfTpF6OUX7KXFUmlUW-168">
          <mxGeometry relative="1" as="geometry">
            <mxPoint x="520" y="430" as="sourcePoint" />
            <mxPoint x="390" y="450" as="targetPoint" />
          </mxGeometry>
        </mxCell>
        <mxCell id="paCfTpF6OUX7KXFUmlUW-212" value="" style="endArrow=none;html=1;rounded=0;exitX=0;exitY=0.5;exitDx=0;exitDy=0;entryX=1;entryY=0.5;entryDx=0;entryDy=0;" edge="1" parent="1" source="paCfTpF6OUX7KXFUmlUW-206" target="paCfTpF6OUX7KXFUmlUW-168">
          <mxGeometry relative="1" as="geometry">
            <mxPoint x="530" y="440" as="sourcePoint" />
            <mxPoint x="380" y="440" as="targetPoint" />
          </mxGeometry>
        </mxCell>
        <mxCell id="paCfTpF6OUX7KXFUmlUW-213" value="" style="endArrow=none;html=1;rounded=0;exitX=0;exitY=0.5;exitDx=0;exitDy=0;entryX=1;entryY=0.5;entryDx=0;entryDy=0;" edge="1" parent="1" source="paCfTpF6OUX7KXFUmlUW-208" target="paCfTpF6OUX7KXFUmlUW-168">
          <mxGeometry relative="1" as="geometry">
            <mxPoint x="540" y="450" as="sourcePoint" />
            <mxPoint x="410" y="470" as="targetPoint" />
          </mxGeometry>
        </mxCell>
        <mxCell id="paCfTpF6OUX7KXFUmlUW-214" value="" style="endArrow=none;html=1;rounded=0;exitX=0;exitY=0.5;exitDx=0;exitDy=0;entryX=1;entryY=1;entryDx=0;entryDy=0;" edge="1" parent="1" source="paCfTpF6OUX7KXFUmlUW-168" target="paCfTpF6OUX7KXFUmlUW-204">
          <mxGeometry relative="1" as="geometry">
            <mxPoint x="520" y="430" as="sourcePoint" />
            <mxPoint x="390" y="450" as="targetPoint" />
          </mxGeometry>
        </mxCell>
        <mxCell id="paCfTpF6OUX7KXFUmlUW-215" value="" style="endArrow=none;html=1;rounded=0;exitX=0;exitY=0.5;exitDx=0;exitDy=0;entryX=1;entryY=0.5;entryDx=0;entryDy=0;" edge="1" parent="1" source="paCfTpF6OUX7KXFUmlUW-168" target="paCfTpF6OUX7KXFUmlUW-201">
          <mxGeometry relative="1" as="geometry">
            <mxPoint x="530" y="440" as="sourcePoint" />
            <mxPoint x="400" y="460" as="targetPoint" />
          </mxGeometry>
        </mxCell>
        <mxCell id="paCfTpF6OUX7KXFUmlUW-216" value="" style="endArrow=none;html=1;rounded=0;exitX=0;exitY=0.5;exitDx=0;exitDy=0;entryX=1;entryY=1;entryDx=0;entryDy=0;" edge="1" parent="1" source="paCfTpF6OUX7KXFUmlUW-168" target="paCfTpF6OUX7KXFUmlUW-203">
          <mxGeometry relative="1" as="geometry">
            <mxPoint x="270" y="400" as="sourcePoint" />
            <mxPoint x="140" y="420" as="targetPoint" />
          </mxGeometry>
        </mxCell>
        <mxCell id="paCfTpF6OUX7KXFUmlUW-217" value="" style="endArrow=none;html=1;rounded=0;exitX=0;exitY=0.5;exitDx=0;exitDy=0;entryX=1;entryY=0;entryDx=0;entryDy=0;" edge="1" parent="1" source="paCfTpF6OUX7KXFUmlUW-168" target="paCfTpF6OUX7KXFUmlUW-202">
          <mxGeometry relative="1" as="geometry">
            <mxPoint x="270" y="450" as="sourcePoint" />
            <mxPoint x="140" y="510" as="targetPoint" />
          </mxGeometry>
        </mxCell>
      </root>
    </mxGraphModel>
  </diagram>
</mxfile>
